G75*
%MOIN*%
%OFA0B0*%
%FSLAX25Y25*%
%IPPOS*%
%LPD*%
%AMOC8*
5,1,8,0,0,1.08239X$1,22.5*
%
%ADD10C,0.00200*%
D10*
X0005837Y0009210D02*
X0005542Y0009505D01*
X0005542Y0010095D01*
X0006132Y0010095D01*
X0006722Y0009505D02*
X0006427Y0009210D01*
X0005837Y0009210D01*
X0006722Y0009505D02*
X0006722Y0010685D01*
X0006427Y0010980D01*
X0005837Y0010980D01*
X0005542Y0010685D01*
X0012765Y0010638D02*
X0012765Y0011839D01*
X0013966Y0011839D02*
X0013966Y0010638D01*
X0013365Y0010037D01*
X0012765Y0010638D01*
X0013591Y0014013D02*
X0014181Y0014013D01*
X0014476Y0014308D01*
X0014476Y0014898D02*
X0013886Y0015193D01*
X0013591Y0015193D01*
X0013296Y0014898D01*
X0013296Y0014308D01*
X0013591Y0014013D01*
X0014476Y0014898D02*
X0014476Y0015783D01*
X0013296Y0015783D01*
X0015109Y0015488D02*
X0015404Y0015783D01*
X0015994Y0015783D01*
X0016289Y0015488D01*
X0016289Y0014308D01*
X0015994Y0014013D01*
X0015404Y0014013D01*
X0015109Y0014308D01*
X0017315Y0012307D02*
X0017315Y0011706D01*
X0017616Y0011406D01*
X0017616Y0010766D02*
X0017315Y0010465D01*
X0017315Y0009865D01*
X0017616Y0009565D01*
X0018817Y0009565D01*
X0019117Y0009865D01*
X0019117Y0010465D01*
X0018817Y0010766D01*
X0018817Y0011406D02*
X0018516Y0011406D01*
X0018216Y0011706D01*
X0018216Y0012307D01*
X0017916Y0012607D01*
X0017616Y0012607D01*
X0017315Y0012307D01*
X0018817Y0012607D02*
X0019117Y0012307D01*
X0019117Y0011706D01*
X0018817Y0011406D01*
X0022276Y0011470D02*
X0022276Y0012071D01*
X0022576Y0012371D01*
X0022276Y0013011D02*
X0022276Y0014213D01*
X0022276Y0014853D02*
X0024078Y0014853D01*
X0023177Y0015153D02*
X0022276Y0016054D01*
X0022876Y0014853D02*
X0024078Y0016054D01*
X0024078Y0013011D02*
X0022276Y0013011D01*
X0022276Y0011470D02*
X0022576Y0011170D01*
X0023777Y0011170D01*
X0024078Y0011470D01*
X0024078Y0012071D01*
X0023777Y0012371D01*
X0023777Y0010529D02*
X0024078Y0010229D01*
X0024078Y0009629D01*
X0023777Y0009328D01*
X0023477Y0009328D01*
X0023177Y0009629D01*
X0023177Y0010229D01*
X0022876Y0010529D01*
X0022576Y0010529D01*
X0022276Y0010229D01*
X0022276Y0009629D01*
X0022576Y0009328D01*
X0027276Y0009643D02*
X0029078Y0009643D01*
X0028477Y0010244D01*
X0029078Y0010844D01*
X0027276Y0010844D01*
X0027576Y0011485D02*
X0027276Y0011785D01*
X0027276Y0012386D01*
X0027576Y0012686D01*
X0028777Y0012686D01*
X0029078Y0012386D01*
X0029078Y0011785D01*
X0028777Y0011485D01*
X0027576Y0011485D01*
X0027576Y0013326D02*
X0027276Y0013627D01*
X0027276Y0014227D01*
X0027576Y0014527D01*
X0027876Y0014527D01*
X0028177Y0014227D01*
X0028177Y0013627D01*
X0028477Y0013326D01*
X0028777Y0013326D01*
X0029078Y0013627D01*
X0029078Y0014227D01*
X0028777Y0014527D01*
X0029078Y0015168D02*
X0029078Y0015769D01*
X0029078Y0015468D02*
X0027276Y0015468D01*
X0027276Y0015168D02*
X0027276Y0015769D01*
X0032315Y0015809D02*
X0032315Y0015209D01*
X0032616Y0014908D01*
X0033817Y0014908D01*
X0034117Y0015209D01*
X0034117Y0015809D01*
X0033817Y0016110D01*
X0032616Y0016110D01*
X0032315Y0015809D01*
X0032616Y0014268D02*
X0032315Y0013968D01*
X0032315Y0013367D01*
X0032616Y0013067D01*
X0033216Y0013367D02*
X0033216Y0013968D01*
X0032916Y0014268D01*
X0032616Y0014268D01*
X0033216Y0013367D02*
X0033516Y0013067D01*
X0033817Y0013067D01*
X0034117Y0013367D01*
X0034117Y0013968D01*
X0033817Y0014268D01*
X0034117Y0012440D02*
X0034117Y0011839D01*
X0034117Y0012139D02*
X0032315Y0012139D01*
X0032315Y0011839D02*
X0032315Y0012440D01*
X0032315Y0011199D02*
X0034117Y0011199D01*
X0033516Y0010598D01*
X0034117Y0009998D01*
X0032315Y0009998D01*
X0037158Y0009707D02*
X0037458Y0009407D01*
X0037158Y0009707D02*
X0037158Y0010308D01*
X0037458Y0010608D01*
X0037758Y0010608D01*
X0038059Y0010308D01*
X0038059Y0009707D01*
X0038359Y0009407D01*
X0038659Y0009407D01*
X0038959Y0009707D01*
X0038959Y0010308D01*
X0038659Y0010608D01*
X0038959Y0011249D02*
X0037158Y0011249D01*
X0037758Y0011849D01*
X0037158Y0012450D01*
X0038959Y0012450D01*
X0038959Y0013090D02*
X0038959Y0013991D01*
X0038659Y0014291D01*
X0037458Y0014291D01*
X0037158Y0013991D01*
X0037158Y0013090D01*
X0038959Y0013090D01*
X0038659Y0014932D02*
X0037458Y0014932D01*
X0037158Y0015232D01*
X0037158Y0015833D01*
X0037458Y0016133D01*
X0037158Y0016773D02*
X0037158Y0017974D01*
X0037158Y0018615D02*
X0038959Y0018615D01*
X0038059Y0018915D02*
X0037158Y0019816D01*
X0037758Y0018615D02*
X0038959Y0019816D01*
X0038959Y0016773D02*
X0037158Y0016773D01*
X0038659Y0016133D02*
X0038959Y0015833D01*
X0038959Y0015232D01*
X0038659Y0014932D01*
X0042670Y0011536D02*
X0042670Y0010935D01*
X0042970Y0010635D01*
X0044171Y0010635D01*
X0044471Y0010935D01*
X0044471Y0011536D01*
X0044171Y0011836D01*
X0042970Y0011836D01*
X0042670Y0011536D01*
X0042670Y0010008D02*
X0042670Y0009407D01*
X0042670Y0009707D02*
X0044471Y0009707D01*
X0044471Y0009407D02*
X0044471Y0010008D01*
X0031387Y0024092D02*
X0030797Y0024092D01*
X0030502Y0024387D01*
X0029870Y0024387D02*
X0029870Y0024977D01*
X0028985Y0024977D01*
X0028690Y0024682D01*
X0028690Y0024387D01*
X0028985Y0024092D01*
X0029575Y0024092D01*
X0029870Y0024387D01*
X0029870Y0024977D02*
X0029280Y0025567D01*
X0028690Y0025862D01*
X0030502Y0025567D02*
X0030797Y0025862D01*
X0031387Y0025862D01*
X0031682Y0025567D01*
X0031682Y0024387D01*
X0031387Y0024092D01*
X0031681Y0029998D02*
X0031681Y0030293D01*
X0030501Y0031473D01*
X0030501Y0031768D01*
X0031681Y0031768D01*
X0032313Y0031473D02*
X0032608Y0031768D01*
X0033198Y0031768D01*
X0033493Y0031473D01*
X0033493Y0030293D01*
X0033198Y0029998D01*
X0032608Y0029998D01*
X0032313Y0030293D01*
X0032175Y0036966D02*
X0031585Y0036966D01*
X0031290Y0037261D01*
X0030657Y0037261D02*
X0030362Y0036966D01*
X0029772Y0036966D01*
X0029477Y0037261D01*
X0029477Y0037556D01*
X0029772Y0037851D01*
X0030362Y0037851D01*
X0030657Y0038146D01*
X0030657Y0038441D01*
X0030362Y0038736D01*
X0029772Y0038736D01*
X0029477Y0038441D01*
X0029477Y0038146D01*
X0029772Y0037851D01*
X0030362Y0037851D02*
X0030657Y0037556D01*
X0030657Y0037261D01*
X0031290Y0038441D02*
X0031585Y0038736D01*
X0032175Y0038736D01*
X0032470Y0038441D01*
X0032470Y0037261D01*
X0032175Y0036966D01*
X0032372Y0042557D02*
X0031782Y0042557D01*
X0031487Y0042852D01*
X0030854Y0042557D02*
X0029674Y0042557D01*
X0030264Y0042557D02*
X0030264Y0044327D01*
X0030854Y0043737D01*
X0031487Y0044032D02*
X0031782Y0044327D01*
X0032372Y0044327D01*
X0032667Y0044032D01*
X0032667Y0042852D01*
X0032372Y0042557D01*
X0026725Y0053580D02*
X0025545Y0055350D01*
X0024912Y0054760D02*
X0024322Y0055350D01*
X0024322Y0053580D01*
X0024912Y0053580D02*
X0023732Y0053580D01*
X0025545Y0053580D02*
X0026725Y0055350D01*
X0015857Y0048364D02*
X0015857Y0047774D01*
X0015562Y0047479D01*
X0015562Y0046847D02*
X0015857Y0046552D01*
X0015857Y0045962D01*
X0015562Y0045667D01*
X0014382Y0045667D01*
X0014087Y0045962D01*
X0014087Y0046552D01*
X0014382Y0046847D01*
X0014087Y0047479D02*
X0015267Y0048659D01*
X0015562Y0048659D01*
X0015857Y0048364D01*
X0014087Y0048659D02*
X0014087Y0047479D01*
X0010660Y0049345D02*
X0010365Y0049050D01*
X0009185Y0049050D01*
X0008890Y0049345D01*
X0008890Y0049935D01*
X0009185Y0050230D01*
X0009775Y0050862D02*
X0009775Y0052042D01*
X0008890Y0051747D02*
X0010660Y0051747D01*
X0009775Y0050862D01*
X0010365Y0050230D02*
X0010660Y0049935D01*
X0010660Y0049345D01*
X0011937Y0038539D02*
X0012527Y0038539D01*
X0012822Y0038244D01*
X0012822Y0037949D01*
X0012527Y0037654D01*
X0011642Y0037654D01*
X0011642Y0037064D02*
X0011642Y0038244D01*
X0011937Y0038539D01*
X0011642Y0037064D02*
X0011937Y0036769D01*
X0012527Y0036769D01*
X0012822Y0037064D01*
X0013455Y0037064D02*
X0013750Y0036769D01*
X0014340Y0036769D01*
X0014635Y0037064D01*
X0014635Y0038244D01*
X0014340Y0038539D01*
X0013750Y0038539D01*
X0013455Y0038244D01*
M02*
