G75*
%MOIN*%
%OFA0B0*%
%FSLAX25Y25*%
%IPPOS*%
%LPD*%
%AMOC8*
5,1,8,0,0,1.08239X$1,22.5*
%
%ADD10C,0.00200*%
%ADD11C,0.00300*%
%ADD12C,0.00500*%
%ADD13C,0.00787*%
D10*
X0007177Y0011454D02*
X0007767Y0011454D01*
X0008062Y0011749D01*
X0008062Y0012339D01*
X0007472Y0012339D01*
X0006882Y0011749D02*
X0007177Y0011454D01*
X0006882Y0011749D02*
X0006882Y0012929D01*
X0007177Y0013224D01*
X0007767Y0013224D01*
X0008062Y0012929D01*
X0009243Y0045273D02*
X0011013Y0045273D01*
X0011013Y0046453D01*
X0011013Y0047086D02*
X0009833Y0048266D01*
X0009538Y0048266D01*
X0009243Y0047971D01*
X0009243Y0047381D01*
X0009538Y0047086D01*
X0011013Y0047086D02*
X0011013Y0048266D01*
X0014166Y0053187D02*
X0015346Y0053187D01*
X0015978Y0053482D02*
X0016273Y0053187D01*
X0016863Y0053187D01*
X0017158Y0053482D01*
X0017158Y0053777D01*
X0016863Y0054072D01*
X0016568Y0054072D01*
X0016863Y0054072D02*
X0017158Y0054367D01*
X0017158Y0054662D01*
X0016863Y0054957D01*
X0016273Y0054957D01*
X0015978Y0054662D01*
X0014166Y0054957D02*
X0014166Y0053187D01*
X0016252Y0051276D02*
X0016252Y0050096D01*
X0016547Y0049801D01*
X0017137Y0049801D01*
X0017432Y0050096D01*
X0018065Y0049801D02*
X0019245Y0049801D01*
X0019877Y0050096D02*
X0021057Y0051276D01*
X0021057Y0050096D01*
X0020762Y0049801D01*
X0020172Y0049801D01*
X0019877Y0050096D01*
X0019877Y0051276D01*
X0020172Y0051571D01*
X0020762Y0051571D01*
X0021057Y0051276D01*
X0018655Y0051571D02*
X0018655Y0049801D01*
X0018065Y0050981D02*
X0018655Y0051571D01*
X0017432Y0051276D02*
X0017137Y0051571D01*
X0016547Y0051571D01*
X0016252Y0051276D01*
X0035248Y0022476D02*
X0034953Y0022181D01*
X0034953Y0021001D01*
X0035248Y0020706D01*
X0035838Y0020706D01*
X0036133Y0021001D01*
X0036766Y0021001D02*
X0037061Y0020706D01*
X0037651Y0020706D01*
X0037946Y0021001D01*
X0037946Y0021296D01*
X0037651Y0021591D01*
X0037356Y0021591D01*
X0037651Y0021591D02*
X0037946Y0021886D01*
X0037946Y0022181D01*
X0037651Y0022476D01*
X0037061Y0022476D01*
X0036766Y0022181D01*
X0036133Y0022181D02*
X0035838Y0022476D01*
X0035248Y0022476D01*
X0040424Y0027202D02*
X0042194Y0027202D01*
X0042194Y0028382D01*
X0042194Y0029015D02*
X0042194Y0030195D01*
X0042194Y0029605D02*
X0040424Y0029605D01*
X0041014Y0029015D01*
X0047038Y0036297D02*
X0046448Y0036887D01*
X0047038Y0037477D01*
X0048218Y0037477D01*
X0048218Y0038109D02*
X0046448Y0038109D01*
X0048218Y0039289D01*
X0046448Y0039289D01*
X0046448Y0039922D02*
X0046448Y0041102D01*
X0046448Y0040512D02*
X0048218Y0040512D01*
X0047333Y0037477D02*
X0047333Y0036297D01*
X0047038Y0036297D02*
X0048218Y0036297D01*
X0048043Y0047320D02*
X0047748Y0047615D01*
X0047748Y0048795D01*
X0048043Y0049090D01*
X0048633Y0049090D01*
X0048928Y0048795D01*
X0048928Y0048205D02*
X0048338Y0048205D01*
X0048928Y0048205D02*
X0048928Y0047615D01*
X0048633Y0047320D01*
X0048043Y0047320D01*
X0045504Y0014425D02*
X0045504Y0013245D01*
X0044914Y0013835D02*
X0046094Y0013835D01*
D11*
X0038321Y0052134D02*
X0037371Y0053085D01*
X0037846Y0053085D02*
X0036420Y0053085D01*
X0036420Y0052134D02*
X0036420Y0054986D01*
X0037846Y0054986D01*
X0038321Y0054511D01*
X0038321Y0053560D01*
X0037846Y0053085D01*
X0035421Y0052134D02*
X0035421Y0054986D01*
X0033520Y0054986D02*
X0033520Y0052134D01*
X0032521Y0052134D02*
X0032521Y0054986D01*
X0033520Y0054986D02*
X0035421Y0052134D01*
X0032521Y0052134D02*
X0031570Y0053085D01*
X0030620Y0052134D01*
X0030620Y0054986D01*
X0029621Y0053560D02*
X0027720Y0052134D01*
X0029621Y0053560D02*
X0027720Y0054986D01*
D12*
X0045956Y0002142D02*
X0005365Y0002142D01*
X0005365Y0010646D01*
X0045956Y0010646D01*
X0045956Y0002142D01*
X0048515Y0015154D02*
X0040011Y0015154D01*
X0040011Y0020783D01*
X0048515Y0020783D01*
X0048515Y0015154D01*
X0049184Y0049760D02*
X0040680Y0049760D01*
X0040680Y0055390D01*
X0049184Y0055390D01*
X0049184Y0049760D01*
D13*
X0045286Y0040882D02*
X0042924Y0040882D01*
X0042924Y0037732D01*
X0045286Y0037732D01*
X0045286Y0040882D01*
M02*
