G75*
%MOIN*%
%OFA0B0*%
%FSLAX25Y25*%
%IPPOS*%
%LPD*%
%AMOC8*
5,1,8,0,0,1.08239X$1,22.5*
%
%ADD10R,0.02756X0.03543*%
%ADD11R,0.03543X0.02756*%
%ADD12R,0.04331X0.03937*%
%ADD13R,0.04200X0.04200*%
%ADD14C,0.04200*%
%ADD15R,0.02165X0.01772*%
%ADD16C,0.00787*%
%ADD17R,0.02578X0.02578*%
%ADD18C,0.00800*%
%ADD19C,0.02578*%
%ADD20C,0.01200*%
D10*
X0011428Y0019031D03*
X0016546Y0019031D03*
X0023003Y0028283D03*
X0022767Y0032850D03*
X0022255Y0037260D03*
X0027373Y0037260D03*
X0027885Y0032850D03*
X0028121Y0028283D03*
X0027255Y0044937D03*
X0022137Y0044937D03*
D11*
X0017963Y0044858D03*
X0017963Y0049976D03*
X0005719Y0052102D03*
X0005719Y0046984D03*
D12*
X0009893Y0034268D03*
X0016585Y0034268D03*
D13*
X0043160Y0006394D03*
X0044263Y0017969D03*
X0044932Y0052575D03*
D14*
X0038160Y0006394D03*
X0033160Y0006394D03*
X0028160Y0006394D03*
X0023160Y0006394D03*
X0018160Y0006394D03*
X0013160Y0006394D03*
X0008160Y0006394D03*
D15*
X0022747Y0048224D03*
X0022747Y0051965D03*
X0027668Y0051965D03*
X0027668Y0048224D03*
D16*
X0004042Y0032677D02*
X0004042Y0002787D01*
X0048499Y0002787D01*
X0048499Y0031025D01*
X0039128Y0030899D01*
X0040443Y0029583D01*
X0040443Y0027692D01*
X0039106Y0026355D01*
X0037215Y0026355D01*
X0036636Y0026934D01*
X0030667Y0025794D01*
X0030198Y0025645D01*
X0030114Y0025689D01*
X0030073Y0025681D01*
X0029910Y0025518D01*
X0026331Y0025518D01*
X0025749Y0026100D01*
X0025749Y0026234D01*
X0025679Y0025974D01*
X0025496Y0025656D01*
X0025236Y0025397D01*
X0024919Y0025213D01*
X0024564Y0025118D01*
X0023298Y0025118D01*
X0023298Y0027988D01*
X0022707Y0027988D01*
X0020231Y0027988D01*
X0020231Y0026328D01*
X0020326Y0025974D01*
X0020510Y0025656D01*
X0020769Y0025397D01*
X0021087Y0025213D01*
X0021441Y0025118D01*
X0022707Y0025118D01*
X0022707Y0027988D01*
X0022707Y0028579D01*
X0020231Y0028579D01*
X0020231Y0030239D01*
X0020242Y0030278D01*
X0020090Y0030541D01*
X0019995Y0030895D01*
X0019995Y0031667D01*
X0019866Y0031443D01*
X0019607Y0031184D01*
X0019289Y0031000D01*
X0018934Y0030906D01*
X0016979Y0030906D01*
X0016979Y0033874D01*
X0016192Y0033874D01*
X0016192Y0030906D01*
X0014237Y0030906D01*
X0013882Y0031000D01*
X0013564Y0031184D01*
X0013305Y0031443D01*
X0013121Y0031761D01*
X0013052Y0032022D01*
X0013052Y0031888D01*
X0012469Y0031306D01*
X0011793Y0031306D01*
X0012751Y0021797D01*
X0013218Y0021797D01*
X0013800Y0021215D01*
X0013800Y0021081D01*
X0013869Y0021341D01*
X0014053Y0021659D01*
X0014312Y0021918D01*
X0014630Y0022102D01*
X0014985Y0022197D01*
X0016251Y0022197D01*
X0016251Y0019327D01*
X0016841Y0019327D01*
X0016841Y0022197D01*
X0018107Y0022197D01*
X0018462Y0022102D01*
X0018780Y0021918D01*
X0019039Y0021659D01*
X0019223Y0021341D01*
X0019318Y0020987D01*
X0019318Y0019327D01*
X0016841Y0019327D01*
X0016841Y0018736D01*
X0016841Y0015866D01*
X0018107Y0015866D01*
X0018462Y0015961D01*
X0018780Y0016145D01*
X0019039Y0016404D01*
X0019223Y0016722D01*
X0019318Y0017076D01*
X0019318Y0018736D01*
X0016841Y0018736D01*
X0016251Y0018736D01*
X0016251Y0015866D01*
X0014985Y0015866D01*
X0014630Y0015961D01*
X0014312Y0016145D01*
X0014053Y0016404D01*
X0013869Y0016722D01*
X0013800Y0016982D01*
X0013800Y0016848D01*
X0013218Y0016266D01*
X0011564Y0016266D01*
X0011270Y0015800D01*
X0011270Y0014228D01*
X0009933Y0012891D01*
X0008041Y0012891D01*
X0006704Y0014228D01*
X0006704Y0016119D01*
X0008041Y0017456D01*
X0008545Y0017456D01*
X0009056Y0018264D01*
X0009056Y0021215D01*
X0009556Y0021714D01*
X0008589Y0031306D01*
X0007316Y0031306D01*
X0006733Y0031888D01*
X0006733Y0033353D01*
X0005996Y0032615D01*
X0004104Y0032615D01*
X0004042Y0032677D01*
X0004042Y0032044D02*
X0006733Y0032044D01*
X0006733Y0032830D02*
X0006211Y0032830D01*
X0005050Y0034898D02*
X0005050Y0046315D01*
X0005719Y0046984D01*
X0006437Y0044613D02*
X0007903Y0044613D01*
X0008485Y0045195D01*
X0008485Y0048774D01*
X0007903Y0049356D01*
X0007768Y0049356D01*
X0008029Y0049426D01*
X0008347Y0049609D01*
X0008606Y0049869D01*
X0008790Y0050186D01*
X0008885Y0050541D01*
X0008885Y0051807D01*
X0006015Y0051807D01*
X0006015Y0052398D01*
X0005424Y0052398D01*
X0005424Y0054874D01*
X0004042Y0054874D01*
X0004042Y0055118D01*
X0021517Y0055118D01*
X0021359Y0054961D01*
X0021359Y0053844D01*
X0021253Y0053844D01*
X0020670Y0053262D01*
X0020670Y0052604D01*
X0020055Y0052348D01*
X0015780Y0052348D01*
X0015198Y0051766D01*
X0015198Y0048187D01*
X0015780Y0047605D01*
X0015914Y0047605D01*
X0015654Y0047535D01*
X0015336Y0047351D01*
X0015076Y0047092D01*
X0014893Y0046774D01*
X0014798Y0046420D01*
X0014798Y0045154D01*
X0017668Y0045154D01*
X0017668Y0047605D01*
X0018259Y0047605D01*
X0018259Y0045154D01*
X0017668Y0045154D01*
X0017668Y0044563D01*
X0014798Y0044563D01*
X0014798Y0043297D01*
X0014893Y0042942D01*
X0015076Y0042625D01*
X0015336Y0042365D01*
X0015654Y0042182D01*
X0016008Y0042087D01*
X0017668Y0042087D01*
X0017668Y0044563D01*
X0018259Y0044563D01*
X0018259Y0045154D01*
X0021129Y0045154D01*
X0021129Y0045232D01*
X0021841Y0045232D01*
X0021841Y0044642D01*
X0019365Y0044642D01*
X0019365Y0044563D01*
X0018259Y0044563D01*
X0018259Y0042087D01*
X0019866Y0042087D01*
X0019903Y0042050D01*
X0019937Y0042031D01*
X0008435Y0042003D01*
X0007776Y0042003D01*
X0007774Y0042002D01*
X0007772Y0042002D01*
X0007308Y0041535D01*
X0006842Y0041070D01*
X0006842Y0041067D01*
X0006841Y0041066D01*
X0006842Y0040408D01*
X0006842Y0039642D01*
X0006437Y0039238D01*
X0006437Y0044613D01*
X0006437Y0043833D02*
X0014798Y0043833D01*
X0014865Y0043047D02*
X0006437Y0043047D01*
X0006437Y0042261D02*
X0015516Y0042261D01*
X0017668Y0042261D02*
X0018259Y0042261D01*
X0018259Y0043047D02*
X0017668Y0043047D01*
X0017668Y0043833D02*
X0018259Y0043833D01*
X0018259Y0044619D02*
X0019365Y0044619D01*
X0018259Y0045405D02*
X0017668Y0045405D01*
X0017668Y0046191D02*
X0018259Y0046191D01*
X0018259Y0046977D02*
X0017668Y0046977D01*
X0017668Y0044619D02*
X0007909Y0044619D01*
X0008485Y0045405D02*
X0014798Y0045405D01*
X0014798Y0046191D02*
X0008485Y0046191D01*
X0008485Y0046977D02*
X0015010Y0046977D01*
X0015622Y0047763D02*
X0008485Y0047763D01*
X0008485Y0048548D02*
X0015198Y0048548D01*
X0015198Y0049334D02*
X0007924Y0049334D01*
X0008751Y0050120D02*
X0015198Y0050120D01*
X0015198Y0050906D02*
X0008885Y0050906D01*
X0008885Y0051692D02*
X0015198Y0051692D01*
X0017963Y0049976D02*
X0022747Y0051965D01*
X0022747Y0054386D01*
X0030759Y0054386D01*
X0030759Y0050094D01*
X0030877Y0050094D01*
X0030837Y0050488D01*
X0032146Y0052408D02*
X0032146Y0054961D01*
X0031988Y0055118D01*
X0041508Y0055118D01*
X0041438Y0054858D01*
X0041438Y0052881D01*
X0044626Y0052881D01*
X0044626Y0052268D01*
X0045238Y0052268D01*
X0045238Y0049081D01*
X0047215Y0049081D01*
X0047570Y0049176D01*
X0047888Y0049360D01*
X0048147Y0049619D01*
X0048331Y0049937D01*
X0048426Y0050291D01*
X0048426Y0052268D01*
X0045238Y0052268D01*
X0045238Y0052881D01*
X0048426Y0052881D01*
X0048426Y0054858D01*
X0048356Y0055118D01*
X0048499Y0055118D01*
X0048499Y0048638D01*
X0038081Y0048638D01*
X0037937Y0035566D01*
X0036782Y0035566D01*
X0035872Y0034656D01*
X0030256Y0034611D01*
X0030256Y0035034D01*
X0029744Y0035545D01*
X0029744Y0039199D01*
X0030837Y0040291D01*
X0030837Y0042182D01*
X0029626Y0043392D01*
X0029626Y0043536D01*
X0032333Y0043521D01*
X0033238Y0042615D01*
X0035129Y0042615D01*
X0036467Y0043952D01*
X0036467Y0045843D01*
X0035129Y0047180D01*
X0033238Y0047180D01*
X0032353Y0046295D01*
X0029626Y0046311D01*
X0029626Y0046809D01*
X0029744Y0046927D01*
X0029744Y0048353D01*
X0029892Y0048206D01*
X0031783Y0048206D01*
X0033120Y0049543D01*
X0033120Y0051434D01*
X0032146Y0052408D01*
X0032146Y0052478D02*
X0044626Y0052478D01*
X0044626Y0052268D02*
X0041438Y0052268D01*
X0041438Y0050291D01*
X0041533Y0049937D01*
X0041717Y0049619D01*
X0041976Y0049360D01*
X0042294Y0049176D01*
X0042648Y0049081D01*
X0044626Y0049081D01*
X0044626Y0052268D01*
X0044626Y0051692D02*
X0045238Y0051692D01*
X0045238Y0050906D02*
X0044626Y0050906D01*
X0044626Y0050120D02*
X0045238Y0050120D01*
X0045238Y0049334D02*
X0044626Y0049334D01*
X0042020Y0049334D02*
X0032912Y0049334D01*
X0032126Y0048548D02*
X0038081Y0048548D01*
X0038072Y0047763D02*
X0029744Y0047763D01*
X0029744Y0046977D02*
X0033035Y0046977D01*
X0034184Y0044898D02*
X0027255Y0044937D01*
X0027333Y0045665D01*
X0027668Y0048224D01*
X0025922Y0049852D02*
X0025592Y0049522D01*
X0025592Y0047702D01*
X0025465Y0047702D01*
X0025223Y0047460D01*
X0025223Y0048175D01*
X0022796Y0048175D01*
X0022796Y0048274D01*
X0025223Y0048274D01*
X0025223Y0049294D01*
X0025128Y0049648D01*
X0024945Y0049966D01*
X0024685Y0050225D01*
X0024493Y0050337D01*
X0024823Y0050667D01*
X0024823Y0052998D01*
X0025192Y0052998D01*
X0025192Y0052014D01*
X0027619Y0052014D01*
X0027619Y0051915D01*
X0025192Y0051915D01*
X0025192Y0050895D01*
X0025287Y0050541D01*
X0025470Y0050223D01*
X0025730Y0049963D01*
X0025922Y0049852D01*
X0025573Y0050120D02*
X0024790Y0050120D01*
X0024823Y0050906D02*
X0025192Y0050906D01*
X0025192Y0051692D02*
X0024823Y0051692D01*
X0024823Y0052478D02*
X0025192Y0052478D01*
X0025212Y0049334D02*
X0025592Y0049334D01*
X0025592Y0048548D02*
X0025223Y0048548D01*
X0025223Y0047763D02*
X0025592Y0047763D01*
X0029971Y0043047D02*
X0032806Y0043047D01*
X0030837Y0041475D02*
X0038002Y0041475D01*
X0037993Y0040689D02*
X0030837Y0040689D01*
X0030449Y0039903D02*
X0037985Y0039903D01*
X0037976Y0039118D02*
X0029744Y0039118D01*
X0029744Y0038332D02*
X0037967Y0038332D01*
X0037959Y0037546D02*
X0029744Y0037546D01*
X0029744Y0036760D02*
X0037950Y0036760D01*
X0037941Y0035974D02*
X0029744Y0035974D01*
X0030102Y0035188D02*
X0036403Y0035188D01*
X0037727Y0033283D02*
X0027885Y0033205D01*
X0027885Y0032850D01*
X0028121Y0028283D02*
X0030326Y0027142D01*
X0038160Y0028638D01*
X0039554Y0030472D02*
X0048499Y0030472D01*
X0048499Y0029687D02*
X0040340Y0029687D01*
X0040443Y0028901D02*
X0048499Y0028901D01*
X0048499Y0028115D02*
X0040443Y0028115D01*
X0040079Y0027329D02*
X0048499Y0027329D01*
X0048499Y0026543D02*
X0039294Y0026543D01*
X0037027Y0026543D02*
X0034587Y0026543D01*
X0030549Y0025757D02*
X0048499Y0025757D01*
X0048499Y0024971D02*
X0012431Y0024971D01*
X0012510Y0024185D02*
X0048499Y0024185D01*
X0048499Y0023399D02*
X0012590Y0023399D01*
X0012669Y0022613D02*
X0048499Y0022613D01*
X0048499Y0021827D02*
X0018871Y0021827D01*
X0019303Y0021042D02*
X0041730Y0021042D01*
X0041751Y0021062D02*
X0041169Y0020480D01*
X0041169Y0015457D01*
X0041751Y0014875D01*
X0046774Y0014875D01*
X0047356Y0015457D01*
X0047356Y0020480D01*
X0046774Y0021062D01*
X0041751Y0021062D01*
X0041169Y0020256D02*
X0019318Y0020256D01*
X0019318Y0019470D02*
X0041169Y0019470D01*
X0041169Y0018684D02*
X0019318Y0018684D01*
X0019318Y0017898D02*
X0041169Y0017898D01*
X0041169Y0017112D02*
X0019318Y0017112D01*
X0018961Y0016326D02*
X0041169Y0016326D01*
X0041169Y0015540D02*
X0011270Y0015540D01*
X0011270Y0014754D02*
X0048499Y0014754D01*
X0048499Y0013968D02*
X0011010Y0013968D01*
X0010224Y0013182D02*
X0048499Y0013182D01*
X0048499Y0012396D02*
X0011645Y0012396D01*
X0011547Y0012495D02*
X0009656Y0012495D01*
X0008319Y0011158D01*
X0008319Y0009267D01*
X0008467Y0009119D01*
X0008467Y0006700D01*
X0007854Y0006700D01*
X0007854Y0009887D01*
X0007816Y0009887D01*
X0007141Y0009753D01*
X0006505Y0009490D01*
X0005933Y0009107D01*
X0005446Y0008621D01*
X0005064Y0008049D01*
X0004801Y0007413D01*
X0004667Y0006738D01*
X0004667Y0006700D01*
X0007854Y0006700D01*
X0007854Y0006087D01*
X0008467Y0006087D01*
X0008467Y0002900D01*
X0008504Y0002900D01*
X0009179Y0003034D01*
X0009815Y0003298D01*
X0010387Y0003680D01*
X0010874Y0004167D01*
X0010929Y0004249D01*
X0011408Y0003771D01*
X0012545Y0003300D01*
X0013776Y0003300D01*
X0014913Y0003771D01*
X0015660Y0004519D01*
X0016408Y0003771D01*
X0017545Y0003300D01*
X0018776Y0003300D01*
X0019913Y0003771D01*
X0020660Y0004519D01*
X0021408Y0003771D01*
X0022545Y0003300D01*
X0023776Y0003300D01*
X0024913Y0003771D01*
X0025660Y0004519D01*
X0026408Y0003771D01*
X0027545Y0003300D01*
X0028776Y0003300D01*
X0029913Y0003771D01*
X0030660Y0004519D01*
X0031408Y0003771D01*
X0032545Y0003300D01*
X0033776Y0003300D01*
X0034913Y0003771D01*
X0035660Y0004519D01*
X0036408Y0003771D01*
X0037545Y0003300D01*
X0038776Y0003300D01*
X0039913Y0003771D01*
X0040067Y0003925D01*
X0040067Y0003882D01*
X0040649Y0003300D01*
X0045672Y0003300D01*
X0046254Y0003882D01*
X0046254Y0008905D01*
X0045672Y0009487D01*
X0040649Y0009487D01*
X0040067Y0008905D01*
X0040067Y0008863D01*
X0039913Y0009016D01*
X0038776Y0009487D01*
X0037545Y0009487D01*
X0036408Y0009016D01*
X0035660Y0008269D01*
X0034913Y0009016D01*
X0033776Y0009487D01*
X0032545Y0009487D01*
X0031408Y0009016D01*
X0030660Y0008269D01*
X0029913Y0009016D01*
X0028776Y0009487D01*
X0027545Y0009487D01*
X0026408Y0009016D01*
X0025660Y0008269D01*
X0024913Y0009016D01*
X0023776Y0009487D01*
X0022545Y0009487D01*
X0021408Y0009016D01*
X0020660Y0008269D01*
X0019913Y0009016D01*
X0019587Y0009151D01*
X0019587Y0010236D01*
X0018774Y0011049D01*
X0012884Y0011049D01*
X0012884Y0011158D01*
X0011547Y0012495D01*
X0012431Y0011611D02*
X0048499Y0011611D01*
X0048499Y0010825D02*
X0018998Y0010825D01*
X0019587Y0010039D02*
X0048499Y0010039D01*
X0048499Y0009253D02*
X0045906Y0009253D01*
X0046254Y0008467D02*
X0048499Y0008467D01*
X0048499Y0007681D02*
X0046254Y0007681D01*
X0046254Y0006895D02*
X0048499Y0006895D01*
X0048499Y0006109D02*
X0046254Y0006109D01*
X0046254Y0005323D02*
X0048499Y0005323D01*
X0048499Y0004537D02*
X0046254Y0004537D01*
X0046123Y0003751D02*
X0048499Y0003751D01*
X0048499Y0002966D02*
X0008834Y0002966D01*
X0008467Y0002966D02*
X0007854Y0002966D01*
X0007854Y0002900D02*
X0007854Y0006087D01*
X0004667Y0006087D01*
X0004667Y0006050D01*
X0004801Y0005375D01*
X0005064Y0004739D01*
X0005446Y0004167D01*
X0005933Y0003680D01*
X0006505Y0003298D01*
X0007141Y0003034D01*
X0007816Y0002900D01*
X0007854Y0002900D01*
X0007487Y0002966D02*
X0004042Y0002966D01*
X0004042Y0003751D02*
X0005862Y0003751D01*
X0005199Y0004537D02*
X0004042Y0004537D01*
X0004042Y0005323D02*
X0004822Y0005323D01*
X0004042Y0006109D02*
X0007854Y0006109D01*
X0007854Y0005323D02*
X0008467Y0005323D01*
X0008467Y0004537D02*
X0007854Y0004537D01*
X0007854Y0003751D02*
X0008467Y0003751D01*
X0010459Y0003751D02*
X0011455Y0003751D01*
X0008467Y0006895D02*
X0007854Y0006895D01*
X0007854Y0007681D02*
X0008467Y0007681D01*
X0008467Y0008467D02*
X0007854Y0008467D01*
X0007854Y0009253D02*
X0008333Y0009253D01*
X0008319Y0010039D02*
X0004042Y0010039D01*
X0004042Y0010825D02*
X0008319Y0010825D01*
X0008771Y0011611D02*
X0004042Y0011611D01*
X0004042Y0012396D02*
X0009557Y0012396D01*
X0007750Y0013182D02*
X0004042Y0013182D01*
X0004042Y0013968D02*
X0006964Y0013968D01*
X0006704Y0014754D02*
X0004042Y0014754D01*
X0004042Y0015540D02*
X0006704Y0015540D01*
X0006912Y0016326D02*
X0004042Y0016326D01*
X0004042Y0017112D02*
X0007698Y0017112D01*
X0008825Y0017898D02*
X0004042Y0017898D01*
X0004042Y0018684D02*
X0009056Y0018684D01*
X0009056Y0019470D02*
X0004042Y0019470D01*
X0004042Y0020256D02*
X0009056Y0020256D01*
X0009056Y0021042D02*
X0004042Y0021042D01*
X0004042Y0021827D02*
X0009544Y0021827D01*
X0009465Y0022613D02*
X0004042Y0022613D01*
X0004042Y0023399D02*
X0009386Y0023399D01*
X0009307Y0024185D02*
X0004042Y0024185D01*
X0004042Y0024971D02*
X0009228Y0024971D01*
X0009148Y0025757D02*
X0004042Y0025757D01*
X0004042Y0026543D02*
X0009069Y0026543D01*
X0008990Y0027329D02*
X0004042Y0027329D01*
X0004042Y0028115D02*
X0008911Y0028115D01*
X0008832Y0028901D02*
X0004042Y0028901D01*
X0004042Y0029687D02*
X0008752Y0029687D01*
X0008673Y0030472D02*
X0004042Y0030472D01*
X0004042Y0031258D02*
X0008594Y0031258D01*
X0011798Y0031258D02*
X0013490Y0031258D01*
X0011877Y0030472D02*
X0020129Y0030472D01*
X0020231Y0029687D02*
X0011956Y0029687D01*
X0012035Y0028901D02*
X0020231Y0028901D01*
X0020231Y0027329D02*
X0012194Y0027329D01*
X0012273Y0026543D02*
X0020231Y0026543D01*
X0020451Y0025757D02*
X0012352Y0025757D01*
X0013593Y0024937D02*
X0013948Y0023362D01*
X0013593Y0024937D02*
X0013278Y0033677D01*
X0013052Y0036514D02*
X0013052Y0036648D01*
X0012469Y0037230D01*
X0010718Y0037230D01*
X0010718Y0038821D01*
X0019483Y0038842D01*
X0019483Y0037555D01*
X0021959Y0037555D01*
X0021959Y0036965D01*
X0019940Y0036965D01*
X0019866Y0037092D01*
X0019607Y0037351D01*
X0019289Y0037535D01*
X0018934Y0037630D01*
X0016979Y0037630D01*
X0016979Y0034661D01*
X0016192Y0034661D01*
X0016192Y0037630D01*
X0014237Y0037630D01*
X0013882Y0037535D01*
X0013564Y0037351D01*
X0013305Y0037092D01*
X0013121Y0036774D01*
X0013052Y0036514D01*
X0013118Y0036760D02*
X0012940Y0036760D01*
X0013922Y0037546D02*
X0010718Y0037546D01*
X0010718Y0038332D02*
X0019483Y0038332D01*
X0019249Y0037546D02*
X0021959Y0037546D01*
X0021959Y0036964D02*
X0022550Y0036964D01*
X0022550Y0034094D01*
X0023062Y0034094D01*
X0023062Y0033146D01*
X0022471Y0033146D01*
X0022471Y0036016D01*
X0021959Y0036016D01*
X0021959Y0036964D01*
X0021959Y0036760D02*
X0022550Y0036760D01*
X0022550Y0035974D02*
X0022471Y0035974D01*
X0022471Y0035188D02*
X0022550Y0035188D01*
X0022550Y0034402D02*
X0022471Y0034402D01*
X0022471Y0033616D02*
X0023062Y0033616D01*
X0022767Y0032850D02*
X0022767Y0028283D01*
X0023003Y0028283D01*
X0022707Y0028115D02*
X0012114Y0028115D01*
X0016192Y0031258D02*
X0016979Y0031258D01*
X0016979Y0032044D02*
X0016192Y0032044D01*
X0016192Y0032830D02*
X0016979Y0032830D01*
X0016979Y0033616D02*
X0016192Y0033616D01*
X0016192Y0035188D02*
X0016979Y0035188D01*
X0016979Y0035974D02*
X0016192Y0035974D01*
X0016192Y0036760D02*
X0016979Y0036760D01*
X0016979Y0037546D02*
X0016192Y0037546D01*
X0019681Y0031258D02*
X0019995Y0031258D01*
X0022471Y0031449D02*
X0022471Y0032555D01*
X0023062Y0032555D01*
X0023062Y0029685D01*
X0023298Y0029685D01*
X0023298Y0028579D01*
X0022707Y0028579D01*
X0022707Y0031449D01*
X0022471Y0031449D01*
X0022707Y0031258D02*
X0023062Y0031258D01*
X0023062Y0030472D02*
X0022707Y0030472D01*
X0022707Y0029687D02*
X0023062Y0029687D01*
X0023298Y0028901D02*
X0022707Y0028901D01*
X0022707Y0027329D02*
X0023298Y0027329D01*
X0023298Y0026543D02*
X0022707Y0026543D01*
X0022707Y0025757D02*
X0023298Y0025757D01*
X0025554Y0025757D02*
X0026092Y0025757D01*
X0023062Y0032044D02*
X0022471Y0032044D01*
X0016841Y0021827D02*
X0016251Y0021827D01*
X0016251Y0021042D02*
X0016841Y0021042D01*
X0016841Y0020256D02*
X0016251Y0020256D01*
X0016251Y0019470D02*
X0016841Y0019470D01*
X0016841Y0018684D02*
X0016251Y0018684D01*
X0016251Y0017898D02*
X0016841Y0017898D01*
X0016841Y0017112D02*
X0016251Y0017112D01*
X0016251Y0016326D02*
X0016841Y0016326D01*
X0014131Y0016326D02*
X0013277Y0016326D01*
X0012748Y0021827D02*
X0014221Y0021827D01*
X0010601Y0010213D02*
X0011152Y0009661D01*
X0018200Y0009661D01*
X0018200Y0006394D01*
X0018160Y0006394D01*
X0020462Y0008467D02*
X0020858Y0008467D01*
X0021979Y0009253D02*
X0019587Y0009253D01*
X0019865Y0003751D02*
X0021455Y0003751D01*
X0024865Y0003751D02*
X0026455Y0003751D01*
X0029865Y0003751D02*
X0031455Y0003751D01*
X0034865Y0003751D02*
X0036455Y0003751D01*
X0039865Y0003751D02*
X0040197Y0003751D01*
X0040414Y0009253D02*
X0039342Y0009253D01*
X0036979Y0009253D02*
X0034342Y0009253D01*
X0035462Y0008467D02*
X0035858Y0008467D01*
X0031979Y0009253D02*
X0029342Y0009253D01*
X0030462Y0008467D02*
X0030858Y0008467D01*
X0026979Y0009253D02*
X0024342Y0009253D01*
X0025462Y0008467D02*
X0025858Y0008467D01*
X0016455Y0003751D02*
X0014865Y0003751D01*
X0006151Y0009253D02*
X0004042Y0009253D01*
X0004042Y0008467D02*
X0005344Y0008467D01*
X0004912Y0007681D02*
X0004042Y0007681D01*
X0004042Y0006895D02*
X0004698Y0006895D01*
X0006437Y0039903D02*
X0006842Y0039903D01*
X0006841Y0040689D02*
X0006437Y0040689D01*
X0006437Y0041475D02*
X0007248Y0041475D01*
X0006015Y0052398D02*
X0008885Y0052398D01*
X0008885Y0053664D01*
X0008790Y0054018D01*
X0008606Y0054336D01*
X0008347Y0054596D01*
X0008029Y0054779D01*
X0007674Y0054874D01*
X0006015Y0054874D01*
X0006015Y0052398D01*
X0006015Y0052478D02*
X0005424Y0052478D01*
X0005424Y0053264D02*
X0006015Y0053264D01*
X0006015Y0054050D02*
X0005424Y0054050D01*
X0005424Y0054836D02*
X0006015Y0054836D01*
X0007817Y0054836D02*
X0021359Y0054836D01*
X0021359Y0054050D02*
X0008771Y0054050D01*
X0008885Y0053264D02*
X0020672Y0053264D01*
X0020367Y0052478D02*
X0008885Y0052478D01*
X0030757Y0042261D02*
X0038011Y0042261D01*
X0038020Y0043047D02*
X0035561Y0043047D01*
X0036347Y0043833D02*
X0038028Y0043833D01*
X0038037Y0044619D02*
X0036467Y0044619D01*
X0036467Y0045405D02*
X0038046Y0045405D01*
X0038054Y0046191D02*
X0036119Y0046191D01*
X0035333Y0046977D02*
X0038063Y0046977D01*
X0041484Y0050120D02*
X0033120Y0050120D01*
X0033120Y0050906D02*
X0041438Y0050906D01*
X0041438Y0051692D02*
X0032862Y0051692D01*
X0032146Y0053264D02*
X0041438Y0053264D01*
X0041438Y0054050D02*
X0032146Y0054050D01*
X0032146Y0054836D02*
X0041438Y0054836D01*
X0045238Y0052478D02*
X0048499Y0052478D01*
X0048499Y0051692D02*
X0048426Y0051692D01*
X0048426Y0050906D02*
X0048499Y0050906D01*
X0048499Y0050120D02*
X0048380Y0050120D01*
X0048499Y0049334D02*
X0047844Y0049334D01*
X0048426Y0053264D02*
X0048499Y0053264D01*
X0048499Y0054050D02*
X0048426Y0054050D01*
X0048426Y0054836D02*
X0048499Y0054836D01*
X0048499Y0021042D02*
X0046795Y0021042D01*
X0047356Y0020256D02*
X0048499Y0020256D01*
X0048499Y0019470D02*
X0047356Y0019470D01*
X0047356Y0018684D02*
X0048499Y0018684D01*
X0048499Y0017898D02*
X0047356Y0017898D01*
X0047356Y0017112D02*
X0048499Y0017112D01*
X0048499Y0016326D02*
X0047356Y0016326D01*
X0047356Y0015540D02*
X0048499Y0015540D01*
D17*
X0026861Y0019268D03*
X0026743Y0022575D03*
X0022452Y0022811D03*
X0022530Y0019189D03*
X0017885Y0023362D03*
X0017806Y0026591D03*
X0017924Y0029701D03*
X0013751Y0029583D03*
X0013711Y0026472D03*
X0013948Y0023362D03*
X0018908Y0053598D03*
D18*
X0022747Y0048224D02*
X0022747Y0047575D01*
X0017885Y0047575D01*
X0017885Y0044858D01*
X0017963Y0044858D01*
D19*
X0008436Y0038008D03*
X0005050Y0034898D03*
X0008987Y0015173D03*
X0010601Y0010213D03*
X0028554Y0041236D03*
X0034184Y0044898D03*
X0030837Y0050488D03*
X0037727Y0033283D03*
X0038160Y0028638D03*
D20*
X0028554Y0040409D02*
X0028554Y0041236D01*
X0028554Y0040409D02*
X0024893Y0040449D01*
X0027373Y0040449D01*
X0027373Y0037260D01*
X0024893Y0040449D02*
X0008436Y0040409D01*
X0008436Y0038008D01*
X0008751Y0037142D01*
X0009893Y0034268D01*
X0011428Y0019031D01*
X0008987Y0015173D01*
M02*
