%
M48
M72
T01C0.01378
T02C0.02800
%
T01
X10601Y10213
X8987Y15173
X13948Y23362
X13711Y26472
X13751Y29583
X17924Y29701
X17806Y26591
X17885Y23362
X22452Y22811
X22530Y19189
X26861Y19268
X26743Y22575
X37727Y33283
X38160Y28638
X28554Y41236
X34184Y44898
X30837Y50488
X18908Y53598
X8436Y38008
X5050Y34898
T02
X8160Y6394
X13160Y6394
X18160Y6394
X23160Y6394
X28160Y6394
X33160Y6394
X38160Y6394
X43160Y6394
X44263Y17969
X44932Y52575
M30
