G75*
%MOIN*%
%OFA0B0*%
%FSLAX25Y25*%
%IPPOS*%
%LPD*%
%AMOC8*
5,1,8,0,0,1.08239X$1,22.5*
%
%ADD10C,0.00000*%
%ADD11C,0.00512*%
%ADD12C,0.00600*%
%ADD13R,0.18898X0.18898*%
%ADD14R,0.03543X0.00984*%
%ADD15R,0.00984X0.03543*%
%ADD16R,0.04200X0.04200*%
%ADD17C,0.04200*%
%ADD18OC8,0.03562*%
%ADD19C,0.00800*%
%ADD20C,0.01000*%
%ADD21C,0.03169*%
%ADD22C,0.01600*%
D10*
X0002150Y0022633D02*
X0049394Y0022633D01*
X0049394Y0077751D01*
X0002150Y0077751D01*
X0002150Y0022633D01*
D11*
X0002150Y0001256D01*
X0002406Y0008933D02*
X0012386Y0007909D01*
X0012386Y0007676D02*
X0002406Y0008933D01*
X0012386Y0009957D01*
X0012386Y0010190D02*
X0012386Y0007676D01*
X0012386Y0008421D02*
X0002406Y0008933D01*
X0012386Y0009445D01*
X0012386Y0010190D02*
X0002406Y0008933D01*
X0049138Y0008933D01*
X0039158Y0007909D01*
X0039158Y0007676D02*
X0049138Y0008933D01*
X0039158Y0009957D01*
X0039158Y0010190D02*
X0039158Y0007676D01*
X0039158Y0008421D02*
X0049138Y0008933D01*
X0039158Y0009445D01*
X0039158Y0010190D02*
X0049138Y0008933D01*
X0049394Y0001256D02*
X0049394Y0022633D01*
X0080027Y0022633D01*
X0072350Y0022889D02*
X0073374Y0032869D01*
X0073607Y0032869D02*
X0072350Y0022889D01*
X0071326Y0032869D01*
X0071093Y0032869D02*
X0073607Y0032869D01*
X0072862Y0032869D02*
X0072350Y0022889D01*
X0071838Y0032869D01*
X0071093Y0032869D02*
X0072350Y0022889D01*
X0072350Y0077495D01*
X0073374Y0067515D01*
X0073607Y0067515D02*
X0072350Y0077495D01*
X0071326Y0067515D01*
X0071093Y0067515D02*
X0073607Y0067515D01*
X0072862Y0067515D02*
X0072350Y0077495D01*
X0071838Y0067515D01*
X0071093Y0067515D02*
X0072350Y0077495D01*
X0080027Y0077751D02*
X0049394Y0077751D01*
D12*
X0066585Y0055620D02*
X0066585Y0051350D01*
X0063383Y0054553D01*
X0069788Y0054553D01*
X0069788Y0049175D02*
X0069788Y0044905D01*
X0069788Y0047040D02*
X0063383Y0047040D01*
X0065518Y0044905D01*
X0031200Y0016833D02*
X0031200Y0015765D01*
X0026930Y0011495D01*
X0031200Y0011495D01*
X0031200Y0016833D02*
X0030133Y0017900D01*
X0027998Y0017900D01*
X0026930Y0016833D01*
X0022620Y0017900D02*
X0022620Y0011495D01*
X0020485Y0011495D02*
X0024755Y0011495D01*
X0020485Y0015765D02*
X0022620Y0017900D01*
D13*
X0025756Y0054027D03*
D14*
X0009811Y0055011D03*
X0009811Y0053043D03*
X0009811Y0051074D03*
X0009811Y0049106D03*
X0009811Y0047137D03*
X0009811Y0045169D03*
X0009811Y0043200D03*
X0009811Y0041231D03*
X0009811Y0056980D03*
X0009811Y0058948D03*
X0009811Y0060917D03*
X0009811Y0062885D03*
X0009811Y0064854D03*
X0009811Y0066822D03*
X0041701Y0066822D03*
X0041701Y0064854D03*
X0041701Y0062885D03*
X0041701Y0060917D03*
X0041701Y0058948D03*
X0041701Y0056980D03*
X0041701Y0055011D03*
X0041701Y0053043D03*
X0041701Y0051074D03*
X0041701Y0049106D03*
X0041701Y0047137D03*
X0041701Y0045169D03*
X0041701Y0043200D03*
X0041701Y0041231D03*
D15*
X0038552Y0038082D03*
X0036583Y0038082D03*
X0034615Y0038082D03*
X0032646Y0038082D03*
X0030678Y0038082D03*
X0028709Y0038082D03*
X0026741Y0038082D03*
X0024772Y0038082D03*
X0022804Y0038082D03*
X0020835Y0038082D03*
X0018867Y0038082D03*
X0016898Y0038082D03*
X0014930Y0038082D03*
X0012961Y0038082D03*
X0012961Y0069972D03*
X0014930Y0069972D03*
X0016898Y0069972D03*
X0018867Y0069972D03*
X0020835Y0069972D03*
X0022804Y0069972D03*
X0024772Y0069972D03*
X0026741Y0069972D03*
X0028709Y0069972D03*
X0030678Y0069972D03*
X0032646Y0069972D03*
X0034615Y0069972D03*
X0036583Y0069972D03*
X0038552Y0069972D03*
D16*
X0044457Y0027476D03*
D17*
X0039457Y0027476D03*
X0034457Y0027476D03*
X0029457Y0027476D03*
X0024457Y0027476D03*
X0019457Y0027476D03*
X0014457Y0027476D03*
X0009457Y0027476D03*
D18*
X0005150Y0041633D03*
X0005150Y0051633D03*
X0005150Y0056133D03*
X0005150Y0060633D03*
X0005050Y0065133D03*
X0005050Y0069433D03*
X0011150Y0074633D03*
X0016650Y0074633D03*
X0021650Y0074533D03*
X0026650Y0074633D03*
X0031550Y0074633D03*
X0036650Y0074633D03*
X0041650Y0074633D03*
X0046450Y0066733D03*
X0046450Y0062133D03*
X0046550Y0057633D03*
X0046550Y0053233D03*
D19*
X0046359Y0053043D01*
X0041701Y0053043D01*
X0041701Y0056980D02*
X0045896Y0056980D01*
X0046550Y0057633D01*
X0045233Y0060917D02*
X0046450Y0062133D01*
X0045233Y0060917D02*
X0041701Y0060917D01*
X0041701Y0064854D02*
X0044570Y0064854D01*
X0046450Y0066733D01*
X0038552Y0071120D02*
X0038554Y0071180D01*
X0038559Y0071241D01*
X0038568Y0071300D01*
X0038581Y0071359D01*
X0038597Y0071418D01*
X0038617Y0071475D01*
X0038640Y0071530D01*
X0038667Y0071585D01*
X0038696Y0071637D01*
X0038729Y0071688D01*
X0038765Y0071737D01*
X0038803Y0071783D01*
X0038845Y0071827D01*
X0038844Y0071828D02*
X0041650Y0074633D01*
X0038552Y0071120D02*
X0038552Y0069972D01*
X0034615Y0072183D02*
X0034617Y0072243D01*
X0034622Y0072304D01*
X0034631Y0072363D01*
X0034644Y0072422D01*
X0034660Y0072481D01*
X0034680Y0072538D01*
X0034703Y0072593D01*
X0034730Y0072648D01*
X0034759Y0072700D01*
X0034792Y0072751D01*
X0034828Y0072800D01*
X0034866Y0072846D01*
X0034908Y0072890D01*
X0034907Y0072891D02*
X0036650Y0074633D01*
X0034615Y0072183D02*
X0034615Y0069972D01*
X0030678Y0069972D02*
X0030678Y0073761D01*
X0031550Y0074633D01*
X0026741Y0074414D02*
X0026741Y0069972D01*
X0022804Y0069972D02*
X0022804Y0073380D01*
X0021650Y0074533D01*
X0018574Y0072209D02*
X0016650Y0074633D01*
X0014637Y0072146D02*
X0012443Y0074340D01*
X0011736Y0074633D02*
X0011150Y0074633D01*
X0011736Y0074633D02*
X0011796Y0074631D01*
X0011857Y0074626D01*
X0011916Y0074617D01*
X0011975Y0074604D01*
X0012034Y0074588D01*
X0012091Y0074568D01*
X0012146Y0074545D01*
X0012201Y0074518D01*
X0012253Y0074489D01*
X0012304Y0074456D01*
X0012353Y0074420D01*
X0012399Y0074382D01*
X0012443Y0074340D01*
X0014637Y0072146D02*
X0014679Y0072102D01*
X0014717Y0072056D01*
X0014753Y0072007D01*
X0014786Y0071956D01*
X0014815Y0071904D01*
X0014842Y0071849D01*
X0014865Y0071794D01*
X0014885Y0071737D01*
X0014901Y0071678D01*
X0014914Y0071619D01*
X0014923Y0071560D01*
X0014928Y0071499D01*
X0014930Y0071439D01*
X0014930Y0069972D01*
X0018867Y0071502D02*
X0018865Y0071562D01*
X0018860Y0071623D01*
X0018851Y0071682D01*
X0018838Y0071741D01*
X0018822Y0071800D01*
X0018802Y0071857D01*
X0018779Y0071912D01*
X0018752Y0071967D01*
X0018723Y0072019D01*
X0018690Y0072070D01*
X0018654Y0072119D01*
X0018616Y0072165D01*
X0018574Y0072209D01*
X0018867Y0071502D02*
X0018867Y0069972D01*
X0014150Y0065633D02*
X0014150Y0046633D01*
X0009811Y0046633D01*
X0009811Y0045169D01*
X0009811Y0043200D02*
X0014150Y0043200D01*
X0014150Y0042633D02*
X0033350Y0042633D01*
X0034650Y0041333D01*
X0034650Y0038117D01*
X0034615Y0038082D01*
X0032650Y0038082D02*
X0032650Y0033733D01*
X0034457Y0033733D01*
X0034457Y0027476D01*
X0029457Y0027476D02*
X0029457Y0033733D01*
X0028650Y0033733D01*
X0028650Y0038082D01*
X0028709Y0038082D01*
X0024772Y0038082D02*
X0024750Y0038082D01*
X0024750Y0031333D01*
X0024457Y0031333D01*
X0024457Y0027476D01*
X0020850Y0032933D02*
X0019457Y0032933D01*
X0019457Y0027476D01*
X0020850Y0032933D02*
X0020850Y0038082D01*
X0020835Y0038082D01*
X0016898Y0038082D02*
X0016850Y0038082D01*
X0016850Y0034533D01*
X0009457Y0034533D01*
X0009457Y0027476D01*
X0005150Y0041633D02*
X0005450Y0041933D01*
X0005450Y0047233D01*
X0007322Y0049106D01*
X0009811Y0049106D01*
X0009811Y0051074D02*
X0006123Y0051074D01*
X0005416Y0051367D02*
X0005150Y0051633D01*
X0005416Y0051367D02*
X0005460Y0051325D01*
X0005506Y0051287D01*
X0005555Y0051251D01*
X0005606Y0051218D01*
X0005658Y0051189D01*
X0005713Y0051162D01*
X0005768Y0051139D01*
X0005825Y0051119D01*
X0005884Y0051103D01*
X0005943Y0051090D01*
X0006002Y0051081D01*
X0006063Y0051076D01*
X0006123Y0051074D01*
X0006686Y0055011D02*
X0009811Y0055011D01*
X0006686Y0055011D02*
X0006626Y0055013D01*
X0006565Y0055018D01*
X0006506Y0055027D01*
X0006447Y0055040D01*
X0006388Y0055056D01*
X0006331Y0055076D01*
X0006276Y0055099D01*
X0006221Y0055126D01*
X0006169Y0055155D01*
X0006118Y0055188D01*
X0006069Y0055224D01*
X0006023Y0055262D01*
X0005979Y0055304D01*
X0005150Y0056133D01*
X0006542Y0059241D02*
X0005150Y0060633D01*
X0006542Y0059241D02*
X0006586Y0059199D01*
X0006632Y0059161D01*
X0006681Y0059125D01*
X0006732Y0059092D01*
X0006784Y0059063D01*
X0006839Y0059036D01*
X0006894Y0059013D01*
X0006951Y0058993D01*
X0007010Y0058977D01*
X0007069Y0058964D01*
X0007128Y0058955D01*
X0007189Y0058950D01*
X0007249Y0058948D01*
X0009811Y0058948D01*
X0009811Y0062885D02*
X0007298Y0062885D01*
X0005050Y0065133D01*
X0005050Y0069233D02*
X0005050Y0069433D01*
X0005050Y0069233D02*
X0009350Y0069233D01*
X0009350Y0066822D01*
X0009811Y0066822D01*
X0026740Y0074414D02*
X0026739Y0074444D01*
X0026734Y0074474D01*
X0026727Y0074504D01*
X0026716Y0074532D01*
X0026704Y0074560D01*
X0026688Y0074586D01*
X0026670Y0074610D01*
X0026649Y0074632D01*
X0037150Y0065633D02*
X0037150Y0047137D01*
X0041701Y0047137D01*
X0041701Y0045169D02*
X0046150Y0045169D01*
X0046150Y0033633D01*
X0044150Y0033633D01*
X0041650Y0038133D02*
X0041701Y0038184D01*
X0041701Y0041231D01*
X0041701Y0043200D01*
X0032650Y0038082D02*
X0032646Y0038082D01*
D20*
X0037150Y0042633D02*
X0038552Y0042633D01*
X0038552Y0038082D01*
X0014150Y0042633D02*
X0014150Y0043200D01*
X0009811Y0045169D02*
X0009811Y0047137D01*
D21*
X0014150Y0043200D03*
X0022650Y0046633D03*
X0026150Y0049133D03*
X0029650Y0046633D03*
X0029650Y0052133D03*
X0022650Y0052133D03*
X0014150Y0065633D03*
X0037150Y0065633D03*
X0037150Y0042633D03*
X0041650Y0038133D03*
X0044150Y0033633D03*
D22*
X0025756Y0052133D02*
X0025756Y0054027D01*
X0025756Y0052133D02*
X0022650Y0052133D01*
M02*
