G75*
%MOIN*%
%OFA0B0*%
%FSLAX25Y25*%
%IPPOS*%
%LPD*%
%AMOC8*
5,1,8,0,0,1.08239X$1,22.5*
%
%ADD10R,0.03543X0.02756*%
%ADD11R,0.04200X0.04200*%
%ADD12C,0.04200*%
%ADD13OC8,0.03562*%
%ADD14C,0.03169*%
%ADD15C,0.00800*%
%ADD16C,0.01000*%
D10*
X0019418Y0056680D03*
X0019418Y0061798D03*
X0026378Y0061365D03*
X0026378Y0056247D03*
X0033646Y0056444D03*
X0033646Y0061562D03*
D11*
X0044457Y0027476D03*
D12*
X0039457Y0027476D03*
X0034457Y0027476D03*
X0029457Y0027476D03*
X0024457Y0027476D03*
X0019457Y0027476D03*
X0014457Y0027476D03*
X0009457Y0027476D03*
D13*
X0005150Y0041633D03*
X0005150Y0051633D03*
X0005150Y0056133D03*
X0005150Y0060633D03*
X0005050Y0065133D03*
X0005050Y0069433D03*
X0011150Y0074633D03*
X0016650Y0074633D03*
X0021650Y0074533D03*
X0026650Y0074633D03*
X0031550Y0074633D03*
X0036650Y0074633D03*
X0041650Y0074633D03*
X0046450Y0066733D03*
X0046450Y0062133D03*
X0046550Y0057633D03*
X0046550Y0053233D03*
D14*
X0037150Y0042633D03*
X0041650Y0038133D03*
X0044150Y0033633D03*
X0029650Y0046633D03*
X0026150Y0049133D03*
X0029650Y0052133D03*
X0022650Y0052133D03*
X0022650Y0046633D03*
X0014150Y0043200D03*
X0014150Y0065633D03*
X0037150Y0065633D03*
D15*
X0003550Y0045133D02*
X0003550Y0024033D01*
X0008823Y0024033D01*
X0008436Y0024110D01*
X0007799Y0024374D01*
X0007226Y0024757D01*
X0006738Y0025244D01*
X0006355Y0025818D01*
X0006092Y0026455D01*
X0005957Y0027131D01*
X0005957Y0027176D01*
X0009157Y0027176D01*
X0009157Y0027776D01*
X0009157Y0030976D01*
X0009112Y0030976D01*
X0008436Y0030841D01*
X0007799Y0030577D01*
X0007226Y0030194D01*
X0006738Y0029707D01*
X0006355Y0029133D01*
X0006092Y0028496D01*
X0005957Y0027820D01*
X0005957Y0027776D01*
X0009157Y0027776D01*
X0009757Y0027776D01*
X0009757Y0030976D01*
X0009802Y0030976D01*
X0010478Y0030841D01*
X0011115Y0030577D01*
X0011650Y0030220D01*
X0011650Y0033933D01*
X0013057Y0033933D01*
X0013057Y0038213D01*
X0013877Y0039033D01*
X0018057Y0039033D01*
X0018057Y0041233D01*
X0015838Y0041233D01*
X0015614Y0041009D01*
X0014664Y0040616D01*
X0013636Y0040616D01*
X0012686Y0041009D01*
X0011959Y0041736D01*
X0011566Y0042686D01*
X0011566Y0043714D01*
X0011959Y0044664D01*
X0012686Y0045391D01*
X0013636Y0045784D01*
X0014664Y0045784D01*
X0015614Y0045391D01*
X0016341Y0044664D01*
X0016602Y0044033D01*
X0018018Y0044033D01*
X0018018Y0054302D01*
X0017232Y0054302D01*
X0016646Y0054888D01*
X0016646Y0058472D01*
X0017232Y0059058D01*
X0017321Y0059058D01*
X0017106Y0059116D01*
X0016786Y0059300D01*
X0016526Y0059561D01*
X0016341Y0059880D01*
X0016246Y0060236D01*
X0016246Y0061509D01*
X0019129Y0061509D01*
X0019129Y0062087D01*
X0016246Y0062087D01*
X0016246Y0063361D01*
X0016341Y0063717D01*
X0016526Y0064036D01*
X0016786Y0064297D01*
X0017106Y0064481D01*
X0017462Y0064576D01*
X0019129Y0064576D01*
X0019129Y0062087D01*
X0019707Y0062087D01*
X0022589Y0062087D01*
X0022589Y0063361D01*
X0022494Y0063717D01*
X0022310Y0064036D01*
X0022049Y0064297D01*
X0021730Y0064481D01*
X0021374Y0064576D01*
X0019707Y0064576D01*
X0019707Y0062087D01*
X0019707Y0061509D01*
X0022589Y0061509D01*
X0022589Y0060236D01*
X0022494Y0059880D01*
X0022310Y0059561D01*
X0022049Y0059300D01*
X0021730Y0059116D01*
X0021515Y0059058D01*
X0021604Y0059058D01*
X0022189Y0058472D01*
X0022189Y0057647D01*
X0023607Y0057647D01*
X0023607Y0058039D01*
X0024192Y0058625D01*
X0024281Y0058625D01*
X0024066Y0058683D01*
X0023747Y0058867D01*
X0023486Y0059128D01*
X0023302Y0059447D01*
X0023207Y0059803D01*
X0023207Y0061076D01*
X0026089Y0061076D01*
X0026089Y0061654D01*
X0023207Y0061654D01*
X0023207Y0062928D01*
X0023302Y0063284D01*
X0023486Y0063603D01*
X0023747Y0063864D01*
X0024066Y0064048D01*
X0024422Y0064143D01*
X0026089Y0064143D01*
X0026089Y0061654D01*
X0026667Y0061654D01*
X0029550Y0061654D01*
X0029550Y0062928D01*
X0029455Y0063284D01*
X0029270Y0063603D01*
X0029010Y0063864D01*
X0028690Y0064048D01*
X0028334Y0064143D01*
X0026667Y0064143D01*
X0026667Y0061654D01*
X0026667Y0061076D01*
X0029550Y0061076D01*
X0029550Y0059803D01*
X0029455Y0059447D01*
X0029270Y0059128D01*
X0029010Y0058867D01*
X0028690Y0058683D01*
X0028475Y0058625D01*
X0028564Y0058625D01*
X0029150Y0058039D01*
X0029150Y0054455D01*
X0028564Y0053869D01*
X0024192Y0053869D01*
X0023607Y0054455D01*
X0023607Y0054847D01*
X0022148Y0054847D01*
X0021604Y0054302D01*
X0020818Y0054302D01*
X0020818Y0043819D01*
X0020857Y0043780D01*
X0020857Y0043354D01*
X0020957Y0043254D01*
X0020957Y0042012D01*
X0020857Y0041912D01*
X0020857Y0039033D01*
X0031730Y0039033D01*
X0032550Y0038213D01*
X0032550Y0034033D01*
X0041150Y0034033D01*
X0041150Y0034033D01*
X0041566Y0034033D01*
X0041566Y0034147D01*
X0041959Y0035097D01*
X0042686Y0035824D01*
X0043636Y0036217D01*
X0044050Y0036217D01*
X0044050Y0051800D01*
X0043769Y0052081D01*
X0043769Y0054385D01*
X0044050Y0054666D01*
X0044050Y0056200D01*
X0043769Y0056481D01*
X0043769Y0058785D01*
X0044050Y0059066D01*
X0044050Y0060600D01*
X0043669Y0060981D01*
X0043669Y0063285D01*
X0044050Y0063666D01*
X0044050Y0065200D01*
X0043669Y0065581D01*
X0043669Y0067885D01*
X0044050Y0068266D01*
X0044050Y0070933D01*
X0009150Y0070933D01*
X0009150Y0071133D01*
X0008950Y0071133D01*
X0008950Y0045133D01*
X0003550Y0045133D01*
X0003550Y0044991D02*
X0012287Y0044991D01*
X0011764Y0044193D02*
X0003550Y0044193D01*
X0003550Y0043394D02*
X0011566Y0043394D01*
X0011603Y0042596D02*
X0003550Y0042596D01*
X0003550Y0041797D02*
X0011934Y0041797D01*
X0012711Y0040999D02*
X0003550Y0040999D01*
X0003550Y0040200D02*
X0018057Y0040200D01*
X0018057Y0039402D02*
X0003550Y0039402D01*
X0003550Y0038603D02*
X0013447Y0038603D01*
X0013057Y0037805D02*
X0003550Y0037805D01*
X0003550Y0037006D02*
X0013057Y0037006D01*
X0013057Y0036208D02*
X0003550Y0036208D01*
X0003550Y0035409D02*
X0013057Y0035409D01*
X0013057Y0034611D02*
X0003550Y0034611D01*
X0003550Y0033812D02*
X0011650Y0033812D01*
X0011650Y0033014D02*
X0003550Y0033014D01*
X0003550Y0032215D02*
X0011650Y0032215D01*
X0011650Y0031417D02*
X0003550Y0031417D01*
X0003550Y0030618D02*
X0007898Y0030618D01*
X0006851Y0029820D02*
X0003550Y0029820D01*
X0003550Y0029021D02*
X0006309Y0029021D01*
X0006037Y0028223D02*
X0003550Y0028223D01*
X0003550Y0027424D02*
X0009157Y0027424D01*
X0009157Y0028223D02*
X0009757Y0028223D01*
X0009757Y0029021D02*
X0009157Y0029021D01*
X0009157Y0029820D02*
X0009757Y0029820D01*
X0009757Y0030618D02*
X0009157Y0030618D01*
X0011016Y0030618D02*
X0011650Y0030618D01*
X0014457Y0027476D02*
X0014457Y0037633D01*
X0019457Y0037633D01*
X0031150Y0037633D01*
X0031150Y0032633D01*
X0044150Y0032633D01*
X0041758Y0034611D02*
X0032550Y0034611D01*
X0032550Y0035409D02*
X0042272Y0035409D01*
X0043613Y0036208D02*
X0032550Y0036208D01*
X0032550Y0037006D02*
X0044050Y0037006D01*
X0044050Y0037805D02*
X0032550Y0037805D01*
X0032160Y0038603D02*
X0044050Y0038603D01*
X0044050Y0039402D02*
X0020857Y0039402D01*
X0020857Y0040200D02*
X0036270Y0040200D01*
X0036636Y0040049D02*
X0035686Y0040442D01*
X0034959Y0041169D01*
X0034933Y0041233D01*
X0032570Y0041233D01*
X0031750Y0042053D01*
X0031750Y0054066D01*
X0031460Y0054066D01*
X0030874Y0054652D01*
X0030874Y0058236D01*
X0031460Y0058822D01*
X0031549Y0058822D01*
X0031334Y0058880D01*
X0031015Y0059064D01*
X0030754Y0059325D01*
X0030570Y0059644D01*
X0030474Y0060000D01*
X0030474Y0061273D01*
X0033357Y0061273D01*
X0033357Y0061851D01*
X0030474Y0061851D01*
X0030474Y0063124D01*
X0030570Y0063481D01*
X0030754Y0063800D01*
X0031015Y0064060D01*
X0031334Y0064245D01*
X0031690Y0064340D01*
X0033357Y0064340D01*
X0033357Y0061851D01*
X0033935Y0061851D01*
X0036818Y0061851D01*
X0036818Y0063124D01*
X0036722Y0063481D01*
X0036538Y0063800D01*
X0036277Y0064060D01*
X0035958Y0064245D01*
X0035602Y0064340D01*
X0033935Y0064340D01*
X0033935Y0061851D01*
X0033935Y0061273D01*
X0036818Y0061273D01*
X0036818Y0060000D01*
X0036722Y0059644D01*
X0036538Y0059325D01*
X0036277Y0059064D01*
X0035958Y0058880D01*
X0035743Y0058822D01*
X0035832Y0058822D01*
X0036418Y0058236D01*
X0036418Y0054652D01*
X0035832Y0054066D01*
X0034550Y0054066D01*
X0034550Y0044033D01*
X0034933Y0044033D01*
X0034959Y0044097D01*
X0035686Y0044824D01*
X0036636Y0045217D01*
X0037664Y0045217D01*
X0038614Y0044824D01*
X0039341Y0044097D01*
X0039734Y0043147D01*
X0039734Y0042119D01*
X0039341Y0041169D01*
X0038614Y0040442D01*
X0037664Y0040049D01*
X0036636Y0040049D01*
X0038030Y0040200D02*
X0044050Y0040200D01*
X0044050Y0040999D02*
X0039170Y0040999D01*
X0039601Y0041797D02*
X0044050Y0041797D01*
X0044050Y0042596D02*
X0039734Y0042596D01*
X0039632Y0043394D02*
X0044050Y0043394D01*
X0044050Y0044193D02*
X0039245Y0044193D01*
X0038209Y0044991D02*
X0044050Y0044991D01*
X0044050Y0045790D02*
X0034550Y0045790D01*
X0034550Y0046588D02*
X0044050Y0046588D01*
X0044050Y0047387D02*
X0034550Y0047387D01*
X0034550Y0048185D02*
X0044050Y0048185D01*
X0044050Y0048984D02*
X0034550Y0048984D01*
X0034550Y0049782D02*
X0044050Y0049782D01*
X0044050Y0050581D02*
X0034550Y0050581D01*
X0034550Y0051379D02*
X0044050Y0051379D01*
X0043769Y0052178D02*
X0034550Y0052178D01*
X0034550Y0052977D02*
X0043769Y0052977D01*
X0043769Y0053775D02*
X0034550Y0053775D01*
X0036339Y0054574D02*
X0043957Y0054574D01*
X0044050Y0055372D02*
X0036418Y0055372D01*
X0036418Y0056171D02*
X0044050Y0056171D01*
X0043769Y0056969D02*
X0036418Y0056969D01*
X0036418Y0057768D02*
X0043769Y0057768D01*
X0043769Y0058566D02*
X0036088Y0058566D01*
X0036561Y0059365D02*
X0044050Y0059365D01*
X0044050Y0060163D02*
X0036818Y0060163D01*
X0036818Y0060962D02*
X0043688Y0060962D01*
X0043669Y0061760D02*
X0033935Y0061760D01*
X0033357Y0061760D02*
X0029550Y0061760D01*
X0029550Y0060962D02*
X0030474Y0060962D01*
X0030474Y0060163D02*
X0029550Y0060163D01*
X0029407Y0059365D02*
X0030731Y0059365D01*
X0031204Y0058566D02*
X0028623Y0058566D01*
X0029150Y0057768D02*
X0030874Y0057768D01*
X0030874Y0056969D02*
X0029150Y0056969D01*
X0029150Y0056171D02*
X0030874Y0056171D01*
X0030874Y0055372D02*
X0029150Y0055372D01*
X0029150Y0054574D02*
X0030953Y0054574D01*
X0031750Y0053775D02*
X0020818Y0053775D01*
X0020818Y0052977D02*
X0031750Y0052977D01*
X0031750Y0052178D02*
X0020818Y0052178D01*
X0020818Y0051379D02*
X0031750Y0051379D01*
X0031750Y0050581D02*
X0020818Y0050581D01*
X0020818Y0049782D02*
X0031750Y0049782D01*
X0031750Y0048984D02*
X0020818Y0048984D01*
X0020818Y0048185D02*
X0031750Y0048185D01*
X0031750Y0047387D02*
X0020818Y0047387D01*
X0020818Y0046588D02*
X0031750Y0046588D01*
X0031750Y0045790D02*
X0020818Y0045790D01*
X0020818Y0044991D02*
X0031750Y0044991D01*
X0031750Y0044193D02*
X0020818Y0044193D01*
X0020857Y0043394D02*
X0031750Y0043394D01*
X0031750Y0042596D02*
X0020957Y0042596D01*
X0020857Y0041797D02*
X0032006Y0041797D01*
X0033150Y0042633D02*
X0033150Y0056444D01*
X0033357Y0062559D02*
X0033935Y0062559D01*
X0033935Y0063357D02*
X0033357Y0063357D01*
X0033357Y0064156D02*
X0033935Y0064156D01*
X0036112Y0064156D02*
X0044050Y0064156D01*
X0044050Y0064954D02*
X0008950Y0064954D01*
X0008950Y0064156D02*
X0016645Y0064156D01*
X0016246Y0063357D02*
X0008950Y0063357D01*
X0008950Y0062559D02*
X0016246Y0062559D01*
X0016246Y0060962D02*
X0008950Y0060962D01*
X0008950Y0061760D02*
X0019129Y0061760D01*
X0019707Y0061760D02*
X0023207Y0061760D01*
X0023207Y0060962D02*
X0022589Y0060962D01*
X0022570Y0060163D02*
X0023207Y0060163D01*
X0023350Y0059365D02*
X0022113Y0059365D01*
X0022096Y0058566D02*
X0024133Y0058566D01*
X0023607Y0057768D02*
X0022189Y0057768D01*
X0019418Y0056680D02*
X0019418Y0042633D01*
X0014150Y0042633D01*
X0014150Y0043200D01*
X0016013Y0044991D02*
X0018018Y0044991D01*
X0018018Y0044193D02*
X0016536Y0044193D01*
X0018018Y0045790D02*
X0008950Y0045790D01*
X0008950Y0046588D02*
X0018018Y0046588D01*
X0018018Y0047387D02*
X0008950Y0047387D01*
X0008950Y0048185D02*
X0018018Y0048185D01*
X0018018Y0048984D02*
X0008950Y0048984D01*
X0008950Y0049782D02*
X0018018Y0049782D01*
X0018018Y0050581D02*
X0008950Y0050581D01*
X0008950Y0051379D02*
X0018018Y0051379D01*
X0018018Y0052178D02*
X0008950Y0052178D01*
X0008950Y0052977D02*
X0018018Y0052977D01*
X0018018Y0053775D02*
X0008950Y0053775D01*
X0008950Y0054574D02*
X0016961Y0054574D01*
X0016646Y0055372D02*
X0008950Y0055372D01*
X0008950Y0056171D02*
X0016646Y0056171D01*
X0016646Y0056969D02*
X0008950Y0056969D01*
X0008950Y0057768D02*
X0016646Y0057768D01*
X0016740Y0058566D02*
X0008950Y0058566D01*
X0008950Y0059365D02*
X0016722Y0059365D01*
X0016266Y0060163D02*
X0008950Y0060163D01*
X0008950Y0065753D02*
X0043669Y0065753D01*
X0043669Y0066551D02*
X0008950Y0066551D01*
X0008950Y0067350D02*
X0043669Y0067350D01*
X0043932Y0068148D02*
X0008950Y0068148D01*
X0008950Y0068947D02*
X0044050Y0068947D01*
X0044050Y0069745D02*
X0008950Y0069745D01*
X0008950Y0070544D02*
X0044050Y0070544D01*
X0043741Y0063357D02*
X0036755Y0063357D01*
X0036818Y0062559D02*
X0043669Y0062559D01*
X0031180Y0064156D02*
X0022190Y0064156D01*
X0022589Y0063357D02*
X0023345Y0063357D01*
X0023207Y0062559D02*
X0022589Y0062559D01*
X0019707Y0062559D02*
X0019129Y0062559D01*
X0019129Y0063357D02*
X0019707Y0063357D01*
X0019707Y0064156D02*
X0019129Y0064156D01*
X0019418Y0056247D02*
X0026378Y0056247D01*
X0023607Y0054574D02*
X0021875Y0054574D01*
X0026089Y0061760D02*
X0026667Y0061760D01*
X0026667Y0062559D02*
X0026089Y0062559D01*
X0026089Y0063357D02*
X0026667Y0063357D01*
X0029412Y0063357D02*
X0030537Y0063357D01*
X0030474Y0062559D02*
X0029550Y0062559D01*
X0034550Y0044991D02*
X0036091Y0044991D01*
X0035055Y0044193D02*
X0034550Y0044193D01*
X0033150Y0042633D02*
X0037150Y0042633D01*
X0035130Y0040999D02*
X0020857Y0040999D01*
X0019457Y0042633D02*
X0019457Y0043200D01*
X0019457Y0042633D02*
X0019457Y0037633D01*
X0018057Y0040999D02*
X0015589Y0040999D01*
X0005150Y0041633D02*
X0004950Y0041633D01*
X0006058Y0026626D02*
X0003550Y0026626D01*
X0003550Y0025827D02*
X0006352Y0025827D01*
X0006954Y0025029D02*
X0003550Y0025029D01*
X0003550Y0024230D02*
X0008146Y0024230D01*
D16*
X0019418Y0042633D02*
X0019457Y0042633D01*
X0019418Y0056247D02*
X0019418Y0056680D01*
X0033150Y0056444D02*
X0033646Y0056444D01*
X0044150Y0033633D02*
X0044150Y0032633D01*
M02*
