G75*
%MOIN*%
%OFA0B0*%
%FSLAX25Y25*%
%IPPOS*%
%LPD*%
%AMOC8*
5,1,8,0,0,1.08239X$1,22.5*
%
%ADD10C,0.00200*%
%ADD11C,0.00500*%
D10*
X0003348Y0026525D02*
X0004499Y0028060D01*
X0005650Y0026525D01*
X0005650Y0028827D02*
X0003348Y0028827D01*
X0003348Y0030362D02*
X0005650Y0030362D01*
X0004883Y0029594D01*
X0005650Y0028827D01*
X0005650Y0031129D02*
X0003348Y0031129D01*
X0005650Y0032664D01*
X0003348Y0032664D01*
X0003348Y0033431D02*
X0003348Y0034582D01*
X0003732Y0034966D01*
X0004499Y0034966D01*
X0004883Y0034582D01*
X0004883Y0033431D01*
X0005650Y0033431D02*
X0003348Y0033431D01*
X0004883Y0034198D02*
X0005650Y0034966D01*
D11*
X0006662Y0023224D02*
X0047252Y0023224D01*
X0047252Y0031728D01*
X0006662Y0031728D01*
X0006662Y0023224D01*
X0010008Y0038279D02*
X0011386Y0038279D01*
X0010008Y0038279D02*
X0010008Y0039657D01*
X0010008Y0068397D02*
X0010008Y0069775D01*
X0011386Y0069775D01*
X0010795Y0068594D02*
X0010797Y0068633D01*
X0010803Y0068672D01*
X0010813Y0068710D01*
X0010826Y0068747D01*
X0010843Y0068782D01*
X0010863Y0068816D01*
X0010887Y0068847D01*
X0010914Y0068876D01*
X0010943Y0068902D01*
X0010975Y0068925D01*
X0011009Y0068945D01*
X0011045Y0068961D01*
X0011082Y0068973D01*
X0011121Y0068982D01*
X0011160Y0068987D01*
X0011199Y0068988D01*
X0011238Y0068985D01*
X0011277Y0068978D01*
X0011314Y0068967D01*
X0011351Y0068953D01*
X0011386Y0068935D01*
X0011419Y0068914D01*
X0011450Y0068889D01*
X0011478Y0068862D01*
X0011503Y0068832D01*
X0011525Y0068799D01*
X0011544Y0068765D01*
X0011559Y0068729D01*
X0011571Y0068691D01*
X0011579Y0068653D01*
X0011583Y0068614D01*
X0011583Y0068574D01*
X0011579Y0068535D01*
X0011571Y0068497D01*
X0011559Y0068459D01*
X0011544Y0068423D01*
X0011525Y0068389D01*
X0011503Y0068356D01*
X0011478Y0068326D01*
X0011450Y0068299D01*
X0011419Y0068274D01*
X0011386Y0068253D01*
X0011351Y0068235D01*
X0011314Y0068221D01*
X0011277Y0068210D01*
X0011238Y0068203D01*
X0011199Y0068200D01*
X0011160Y0068201D01*
X0011121Y0068206D01*
X0011082Y0068215D01*
X0011045Y0068227D01*
X0011009Y0068243D01*
X0010975Y0068263D01*
X0010943Y0068286D01*
X0010914Y0068312D01*
X0010887Y0068341D01*
X0010863Y0068372D01*
X0010843Y0068406D01*
X0010826Y0068441D01*
X0010813Y0068478D01*
X0010803Y0068516D01*
X0010797Y0068555D01*
X0010795Y0068594D01*
X0007947Y0070956D02*
X0007949Y0071015D01*
X0007955Y0071073D01*
X0007965Y0071131D01*
X0007978Y0071188D01*
X0007996Y0071245D01*
X0008017Y0071300D01*
X0008042Y0071353D01*
X0008070Y0071404D01*
X0008101Y0071454D01*
X0008136Y0071501D01*
X0008174Y0071546D01*
X0008215Y0071589D01*
X0008259Y0071628D01*
X0008305Y0071664D01*
X0008353Y0071698D01*
X0008404Y0071728D01*
X0008457Y0071754D01*
X0008511Y0071777D01*
X0008566Y0071796D01*
X0008623Y0071812D01*
X0008681Y0071824D01*
X0008739Y0071832D01*
X0008798Y0071836D01*
X0008856Y0071836D01*
X0008915Y0071832D01*
X0008973Y0071824D01*
X0009031Y0071812D01*
X0009088Y0071796D01*
X0009143Y0071777D01*
X0009197Y0071754D01*
X0009250Y0071728D01*
X0009301Y0071698D01*
X0009349Y0071664D01*
X0009395Y0071628D01*
X0009439Y0071589D01*
X0009480Y0071546D01*
X0009518Y0071501D01*
X0009553Y0071454D01*
X0009584Y0071404D01*
X0009612Y0071353D01*
X0009637Y0071300D01*
X0009658Y0071245D01*
X0009676Y0071188D01*
X0009689Y0071131D01*
X0009699Y0071073D01*
X0009705Y0071015D01*
X0009707Y0070956D01*
X0009705Y0070897D01*
X0009699Y0070839D01*
X0009689Y0070781D01*
X0009676Y0070724D01*
X0009658Y0070667D01*
X0009637Y0070612D01*
X0009612Y0070559D01*
X0009584Y0070508D01*
X0009553Y0070458D01*
X0009518Y0070411D01*
X0009480Y0070366D01*
X0009439Y0070323D01*
X0009395Y0070284D01*
X0009349Y0070248D01*
X0009301Y0070214D01*
X0009250Y0070184D01*
X0009197Y0070158D01*
X0009143Y0070135D01*
X0009088Y0070116D01*
X0009031Y0070100D01*
X0008973Y0070088D01*
X0008915Y0070080D01*
X0008856Y0070076D01*
X0008798Y0070076D01*
X0008739Y0070080D01*
X0008681Y0070088D01*
X0008623Y0070100D01*
X0008566Y0070116D01*
X0008511Y0070135D01*
X0008457Y0070158D01*
X0008404Y0070184D01*
X0008353Y0070214D01*
X0008305Y0070248D01*
X0008259Y0070284D01*
X0008215Y0070323D01*
X0008174Y0070366D01*
X0008136Y0070411D01*
X0008101Y0070458D01*
X0008070Y0070508D01*
X0008042Y0070559D01*
X0008017Y0070612D01*
X0007996Y0070667D01*
X0007978Y0070724D01*
X0007965Y0070781D01*
X0007955Y0070839D01*
X0007949Y0070897D01*
X0007947Y0070956D01*
X0040126Y0069775D02*
X0041504Y0069775D01*
X0041504Y0068397D01*
X0041504Y0039657D02*
X0041504Y0038279D01*
X0040126Y0038279D01*
M02*
