%
M48
M72
T01C0.01969
T02C0.02362
T03C0.02800
%
T01
X37150Y42633
X41650Y38133
X44150Y33633
X29650Y46633
X26150Y49133
X29650Y52133
X22650Y52133
X22650Y46633
X14150Y43200
X14150Y65633
X37150Y65633
T02
X36650Y74633
X41650Y74633
X46450Y66733
X46450Y62133
X46550Y57633
X46550Y53233
X31550Y74633
X26650Y74633
X21650Y74533
X16650Y74633
X11150Y74633
X5050Y69433
X5050Y65133
X5150Y60633
X5150Y56133
X5150Y51633
X5150Y41633
T03
X9457Y27476
X14457Y27476
X19457Y27476
X24457Y27476
X29457Y27476
X34457Y27476
X39457Y27476
X44457Y27476
M30
