G75*
%MOIN*%
%OFA0B0*%
%FSLAX25Y25*%
%IPPOS*%
%LPD*%
%AMOC8*
5,1,8,0,0,1.08239X$1,22.5*
%
%ADD10C,0.00300*%
%ADD11C,0.00500*%
%ADD12C,0.01761*%
D10*
X0043139Y0051244D02*
X0045566Y0053064D01*
X0043139Y0054884D01*
X0046764Y0054884D02*
X0046764Y0051244D01*
X0047978Y0052457D01*
X0049191Y0051244D01*
X0049191Y0054884D01*
X0050389Y0054884D02*
X0052816Y0051244D01*
X0052816Y0054884D01*
X0054015Y0054884D02*
X0055835Y0054884D01*
X0056441Y0054277D01*
X0056441Y0053064D01*
X0055835Y0052457D01*
X0054015Y0052457D01*
X0054015Y0051244D02*
X0054015Y0054884D01*
X0055228Y0052457D02*
X0056441Y0051244D01*
X0050389Y0051244D02*
X0050389Y0054884D01*
D11*
X0055996Y0002942D02*
X0015406Y0002942D01*
X0015406Y0011446D01*
X0055996Y0011446D01*
X0055996Y0002942D01*
X0058540Y0019768D02*
X0032556Y0019768D01*
X0032556Y0037091D02*
X0058540Y0037091D01*
X0058540Y0019768D01*
X0031676Y0039266D02*
X0029176Y0039266D01*
X0026676Y0039266D01*
X0026676Y0038816D01*
X0026676Y0039266D02*
X0024176Y0039266D01*
X0024176Y0038816D01*
X0024176Y0039266D02*
X0021676Y0039266D01*
X0021676Y0038816D01*
X0021676Y0039266D02*
X0019176Y0039266D01*
X0016676Y0039266D01*
X0014176Y0039266D01*
X0014176Y0049266D01*
X0031676Y0049266D01*
X0031676Y0039266D01*
X0029176Y0039266D02*
X0029176Y0038816D01*
X0019176Y0038816D02*
X0019176Y0039266D01*
X0016676Y0039266D02*
X0016676Y0038816D01*
X0014176Y0049266D02*
X0014176Y0056266D01*
X0031676Y0056266D01*
X0031676Y0049266D01*
D12*
X0034525Y0021737D03*
M02*
